<svg version="1.2" xmlns="http://www.w3.org/2000/svg" viewBox="0 0 1030 1030" width="1030" height="1030">
	<title>SharkTankDao-ai</title>
	<style>
		.s0 { fill: #89cff0 } 
		.s1 { fill: #ffffff } 
		.s2 { fill: #777777 } 
		.s3 { fill: none;stroke: #777777;stroke-width: 2 } 
	</style>
	<g id="Layer 1">
		<circle id="&lt;Path&gt;" class="s0" cx="515" cy="515" r="514.5"/>
		<g id="&lt;Group&gt;">
			<g id="&lt;Group&gt;">
				<path id="&lt;Compound Path&gt;" class="s1" d="m76.5 462.8q6.9-7.6 20.3-7.6 13.4 0 20.2 7.6 6.9 7.6 6.9 21.9v3.7h-17.4v-4.9q0-6-2.4-8.8-2.3-2.8-6.8-2.8-4.5 0-6.9 2.8-2.3 2.8-2.3 8.8 0 7.4 3.9 12.9 3.9 5.5 11.8 12.6 6.5 6 10.6 10.6 4 4.6 6.8 11.1 2.9 6.6 2.9 15 0 14.2-7.1 21.8-7 7.6-20.4 7.6-13.4 0-20.4-7.6-7.1-7.6-7.1-21.8v-7.3h17.5v8.4q0 11.4 9.5 11.4 9.6 0 9.6-11.4 0-7.3-4-12.9-3.9-5.5-11.8-12.5-6.5-6.1-10.5-10.7-4.1-4.6-6.9-11.1-2.9-6.5-2.9-14.9 0-14.3 6.9-21.9z"/>
				<path id="&lt;Compound Path&gt;" class="s1" d="m134.6 573.8v-117.3h18.5v50.3h20.9v-50.3h18.8v117.3h-18.8v-50.3h-20.9v50.3z"/>
				<path id="&lt;Compound Path&gt;" fill-rule="evenodd" class="s1" d="m202.4 580.2q-0.1-1.3-0.2-4.3 0-2.9-0.1-6.8 0-3.9 0-8.3 0-4.4 0-8.4 0.1-4.1 0.1-7.4 0.1-3.3 0.2-5.1 0-0.2 0.3-2 0.2-1.8 0.6-4.4 0.3-2.7 0.8-5.9 0.5-3.3 0.9-6.4 0.5-3.2 0.9-6.1 0.4-2.9 0.8-4.8 0.1-0.8 0.4-2.4 0.3-1.6 0.7-3.2 0.3-1.7 0.6-3.1 0.3-1.4 0.4-1.8 0.5-2 1.7-5.9 1.3-3.9 2.6-8 1.4-4 2.6-7.3 1.2-3.3 1.5-4.1 0.1-0.3 1.1-2.1 1.1-1.8 2.4-4.2 1.3-2.4 2.7-4.7 1.4-2.4 2.2-3.8 0.3-0.4 0.9-1.3 0.7-1 1.3-2 0.7-1 1.3-1.9 0.6-0.9 0.8-1.2 0.6-0.9 1.9-2.5 1.3-1.7 2.7-3.3 1.3-1.7 2.4-3 1.2-1.4 1.5-1.8 1-0.9 3.3-3.3 2.4-2.5 5.1-5.2 2.7-2.7 5.1-5.1 2.4-2.3 3.3-3.3 0.6-0.5 2.1-1.7 1.5-1.3 3.1-2.6 1.7-1.3 3.2-2.4 1.6-1.2 2.3-1.7 0.2-0.1 1.5-0.9 1.3-0.9 3-1.9 1.8-1 3.4-2 1.7-1 2.6-1.6 0.5-0.3 2.1-1.1 1.6-0.8 2.2-1 0.1 0.6 0.1 2.2 0 1.6-0.1 2-0.3 0.9-1.2 3.9-0.9 3.1-2 6.7-1.1 3.5-2 6.7-1 3.1-1.2 3.8-1.1 3.4-2 7.5-1 4.1-1.7 10.4-0.8 6.3-1.5 15.7-0.7 9.5-1.3 23.8-0.5 14.4-1 34.5-0.6 20.1-0.9 47.7 0 0.1-1.4 0.3-1.5 0.3-3.5 0.6-2.1 0.4-4.2 0.8-2.2 0.3-3.6 0.4-0.7 0.1-2.4 0.2-1.6 0.1-3.4 0.1-1.9 0-3.5-0.1-1.7-0.1-2.4-0.2v-23.3h-18.9v21.2q-0.8 0.1-2.4 0.3-1.7 0.3-3.5 0.6-1.8 0.4-3.5 0.8-1.7 0.3-2.4 0.4-0.8 0.3-1.9 1-1.1 0.8-1.1 1.2v25.3q-0.5-1.3-1.4-4.6-0.9-3.2-1.7-7-0.9-3.7-1.5-7-0.7-3.3-0.8-4.6zm21.2-59.2q-0.1 0.6-0.2 2.1 0 1.4 0 3.1 0 1.7 0 3.2 0.1 1.5 0.2 2.1 0.7 0.1 2.5 0.2 1.8 0.1 3.9 0.1 2 0 3.8-0.1 1.8-0.1 2.5-0.2 0.5 0 1.3-0.8 0.8-0.8 0.8-1.3 0.3-1.7 0.6-5.1 0.4-3.4 0.8-7.8 0.4-4.4 0.9-9.2 0.4-4.9 0.8-9.3 0.3-4.4 0.6-7.8 0.3-3.5 0.5-5.2 0.1-0.6 0.1-2.1 0-1.6 0-3.2 0-1.7 0-3.2 0-1.4-0.1-2-0.3-0.3-1.1-0.3-0.8 0-1.1 0.3-0.1 0.2-1 1-0.9 0.7-1 1.1-0.6 0.8-1.6 2.5-1 1.6-2 3.3-1 1.7-1.8 3-0.9 1.4-1 1.7-0.2 0.4-0.7 2.3-0.6 1.9-1.3 4.2-0.7 2.3-1.3 4.7-0.6 2.3-0.9 3.6-0.4 1.7-1.1 4.6-0.7 3-1.4 6-0.6 3-1.1 5.5-0.6 2.4-0.6 3z"/>
				<path id="&lt;Compound Path&gt;" fill-rule="evenodd" class="s1" d="m318.3 568.4q-0.3-2.5-0.3-9v-18.4q0-8.1-2.9-11.5-2.8-3.4-9.2-3.4h-6.4v47.7h-18.4v-117.3h27.8q14.3 0 20.8 6.6 6.5 6.7 6.5 20.4v9.2q0 18.1-12 23.8 6.5 2.7 9.3 9 2.9 6.2 2.9 16v18.1q0 5 0.3 8.1 0.4 3.1 1.7 6.1h-18.8q-1-2.9-1.3-5.4zm-18.8-59.1h7.2q5.6 0 8.3-2.8 2.8-2.9 2.8-9.6v-11.6q0-6.3-2.3-9.2-2.2-2.8-7.1-2.8h-8.9z"/>
				<path id="&lt;Compound Path&gt;" class="s1" d="m366.9 537.8v36h-18.5v-117.3h18.5v51.1l24.1-51.1h18.4l-25.6 52.3 25.6 65h-18.9l-17.9-46.7z"/>
				<path id="&lt;Compound Path&gt;" class="s1" d="m469.4 456.5v16.8h-19.3v100.5h-18.4v-100.5h-19.3v-16.8z"/>
				<path id="&lt;Compound Path&gt;" fill-rule="evenodd" class="s1" d="m473.7 580.2q-0.1-1.3-0.2-4.3 0-2.9-0.1-6.8-0.1-3.9-0.1-8.3 0-4.4 0.1-8.4 0.1-4.1 0.1-7.4 0.1-3.3 0.2-5.1 0-0.2 0.2-2 0.3-1.8 0.6-4.4 0.4-2.7 0.9-5.9 0.4-3.3 0.9-6.4 0.5-3.2 0.9-6.1 0.4-2.9 0.8-4.8 0.1-0.8 0.4-2.4 0.3-1.6 0.6-3.2 0.4-1.7 0.7-3.1 0.3-1.4 0.4-1.8 0.5-2 1.7-5.9 1.2-3.9 2.6-8 1.4-4 2.6-7.3 1.1-3.3 1.5-4.1 0.1-0.3 1.1-2.1 1-1.8 2.3-4.2 1.3-2.4 2.8-4.7 1.4-2.4 2.2-3.8 0.2-0.4 0.9-1.3 0.6-1 1.3-2 0.6-1 1.2-1.9 0.6-0.9 0.9-1.2 0.6-0.9 1.9-2.5 1.3-1.7 2.6-3.3 1.4-1.7 2.5-3 1.1-1.4 1.5-1.8 0.9-0.9 3.3-3.3 2.4-2.5 5.1-5.2 2.7-2.7 5.1-5.1 2.4-2.3 3.3-3.3 0.6-0.5 2.1-1.7 1.4-1.3 3.1-2.6 1.7-1.3 3.2-2.4 1.5-1.2 2.3-1.7 0.2-0.1 1.5-0.9 1.3-0.9 3-1.9 1.7-1 3.4-2 1.6-1 2.6-1.6 0.5-0.3 2.1-1.1 1.6-0.8 2.2-1 0.1 0.6 0.1 2.2 0 1.6-0.1 2-0.3 0.9-1.2 3.9-1 3.1-2 6.7-1.1 3.5-2.1 6.7-0.9 3.1-1.1 3.8-1.1 3.4-2.1 7.5-0.9 4.1-1.7 10.4-0.7 6.3-1.4 15.7-0.8 9.5-1.3 23.8-0.5 14.4-1.1 34.5-0.5 20.1-0.8 47.7 0 0.1-1.5 0.3-1.4 0.3-3.5 0.6-2 0.4-4.2 0.8-2.1 0.3-3.5 0.4-0.7 0.1-2.4 0.2-1.6 0.1-3.5 0.1-1.8 0-3.5-0.1-1.6-0.1-2.3-0.2v-23.3h-19v21.2q-0.7 0.1-2.3 0.3-1.7 0.3-3.5 0.6-1.9 0.4-3.5 0.8-1.7 0.3-2.4 0.4-0.8 0.3-2 1-1.1 0.8-1.1 1.2v25.3q-0.5-1.3-1.3-4.6-0.9-3.2-1.8-7-0.8-3.7-1.4-7-0.7-3.3-0.8-4.6zm21.2-59.2q-0.1 0.6-0.2 2.1 0 1.4 0 3.1 0 1.7 0 3.2 0.1 1.5 0.2 2.1 0.7 0.1 2.5 0.2 1.7 0.1 3.8 0.1 2.1 0 3.9-0.1 1.7-0.1 2.5-0.2 0.4 0 1.3-0.8 0.8-0.8 0.8-1.3 0.2-1.7 0.6-5.1 0.3-3.4 0.7-7.8 0.5-4.4 0.9-9.2 0.5-4.9 0.9-9.3 0.3-4.4 0.6-7.8 0.3-3.5 0.4-5.2 0.1-0.6 0.1-2.1 0-1.6 0-3.2 0-1.7 0-3.2 0-1.4-0.1-2-0.2-0.3-1-0.3-0.9 0-1.1 0.3-0.1 0.2-1 1-0.9 0.7-1 1.1-0.6 0.8-1.6 2.5-1 1.6-2 3.3-1 1.7-1.9 3-0.8 1.4-0.9 1.7-0.2 0.4-0.8 2.3-0.5 1.9-1.2 4.2-0.7 2.3-1.3 4.7-0.6 2.3-1 3.6-0.3 1.7-1 4.6-0.7 3-1.4 6-0.6 3-1.2 5.5-0.5 2.4-0.5 3z"/>
				<path id="&lt;Compound Path&gt;" class="s1" d="m568.8 573.8h-16.6v-117.3h23.1l19 70.2v-70.2h16.4v117.3h-19l-22.9-84.9z"/>
				<path id="&lt;Compound Path&gt;" class="s1" d="m642.3 537.8v36h-18.4v-117.3h18.4v51.1l24.2-51.1h18.4l-25.6 52.3 25.6 65h-18.9l-18-46.7z"/>
				<path id="&lt;Compound Path&gt;" fill-rule="evenodd" class="s2" d="m735.8 412.7q18.9 0 28.3 10.2 9.4 10.1 9.4 29.6v81.5q0 19.5-9.4 29.7-9.4 10.1-28.3 10.1h-40v-161.1zm-14.8 138.1h14.3q6.2 0 9.5-3.7 3.4-3.7 3.4-12v-83.7q0-8.3-3.4-12-3.3-3.6-9.5-3.6h-14.3z"/>
				<path id="&lt;Compound Path&gt;" fill-rule="evenodd" class="s2" d="m845.8 573.8l-4.4-29.2h-31.1l-4.3 29.2h-23.3l25.8-161.1h37l25.8 161.1zm-7.8-51.1l-12.2-81.4-12.2 81.4z"/>
				<path id="&lt;Compound Path&gt;" fill-rule="evenodd" class="s2" d="m890.6 421.5q9.9-10.6 28.6-10.6 18.6 0 28.5 10.6 9.9 10.6 9.9 29.9v83.7q0 19.4-9.9 30-9.9 10.5-28.5 10.5-18.7 0-28.6-10.5-9.9-10.6-9.9-30v-83.7q0-19.3 9.9-29.9zm28.6 131.1q13.1 0 13.1-15.8v-87q0-15.9-13.1-15.9-13.2 0-13.2 15.9v87q0 15.8 13.2 15.8z"/>
			</g>
			<path id="&lt;Path&gt;" class="s3" d="m919.7 647.3h-811.2c-21.7 0-39.4-17.7-39.4-39.4h889.9c0 21.7-17.6 39.4-39.3 39.4z"/>
			<g id="&lt;Group&gt;">
				<g id="&lt;Group&gt;">
					<path id="&lt;Compound Path&gt;" class="s2" d="m110.8 632q0 2.3-1.1 3.6-1.2 1.2-3.4 1.2-2.1 0-3.3-1.2-1.1-1.3-1.1-3.6v-9.9q0-2.3 1.1-3.5 1.2-1.3 3.3-1.3 2.2 0 3.4 1.3 1.1 1.2 1.1 3.5v1.9h-2.8v-2.1q0-1.8-1.6-1.8-1.5 0-1.5 1.8v10.3q0 1.9 1.5 1.9 1.6 0 1.6-1.9v-2.7h2.8z"/>
					<path id="&lt;Compound Path&gt;" fill-rule="evenodd" class="s2" d="m120.4 618.6q1.1-1.3 3.3-1.3 2.2 0 3.4 1.3 1.2 1.2 1.2 3.5v9.9q0 2.3-1.2 3.6-1.2 1.2-3.4 1.2-2.2 0-3.3-1.2-1.2-1.3-1.2-3.6v-9.9q0-2.3 1.2-3.5zm3.3 15.5q1.6 0 1.6-1.9v-10.3q0-1.8-1.6-1.8-1.5 0-1.5 1.8v10.3q0 1.9 1.5 1.9z"/>
					<path id="&lt;Compound Path&gt;" class="s2" d="m145.4 617.6h4.1v19h-2.8v-13.6l-2.1 13.6h-2.8l-2.2-13.5v13.5h-2.6v-19h4.1l2.2 13.5z"/>
					<path id="&lt;Compound Path&gt;" class="s2" d="m166.9 617.6h4.2v19h-2.9v-13.6l-2 13.6h-2.9l-2.2-13.5v13.5h-2.6v-19h4.2l2.2 13.5z"/>
					<path id="&lt;Compound Path&gt;" class="s2" d="m182.9 632.3q0 1.8 1.5 1.8 1.6 0 1.6-1.8v-14.7h2.8v14.5q0 2.3-1.1 3.5-1.2 1.3-3.3 1.3-2.2 0-3.4-1.3-1.1-1.2-1.1-3.5v-14.5h3z"/>
					<path id="&lt;Compound Path&gt;" class="s2" d="m200.3 636.6h-2.7v-19h3.8l3.1 11.4v-11.4h2.6v19h-3l-3.8-13.8z"/>
					<path id="&lt;Compound Path&gt;" class="s2" d="m219.1 617.6v19h-3v-19z"/>
					<path id="&lt;Compound Path&gt;" class="s2" d="m236.4 617.6v2.7h-3.1v16.3h-3v-16.3h-3.1v-2.7z"/>
					<path id="&lt;Compound Path&gt;" class="s2" d="m243.5 617.6h3.2l2.3 8.6 2.2-8.6h2.9l-3.8 12.7v6.3h-3v-6.3z"/>
					<path id="&lt;Compound Path&gt;" class="s2" d="m266.9 625.7v2.7h-5.4v-2.7z"/>
					<path id="&lt;Compound Path&gt;" fill-rule="evenodd" class="s2" d="m283.5 618.8q1.1 1.2 1.1 3.5v2.4q0 2.4-1.1 3.6-1.1 1.2-3.3 1.2h-1.5v7.1h-2.9v-19h4.4q2.2 0 3.3 1.2zm-4.8 7.9h1.5q0.7 0 1.1-0.4 0.3-0.4 0.3-1.4v-2.8q0-1-0.3-1.4-0.4-0.4-1.1-0.4h-1.5z"/>
					<path id="&lt;Compound Path&gt;" fill-rule="evenodd" class="s2" d="m293.7 618.6q1.2-1.3 3.4-1.3 2.2 0 3.4 1.3 1.2 1.2 1.2 3.5v9.9q0 2.3-1.2 3.6-1.2 1.2-3.4 1.2-2.2 0-3.4-1.2-1.1-1.3-1.1-3.6v-9.9q0-2.3 1.1-3.5zm3.4 15.5q1.6 0 1.6-1.9v-10.3q0-1.8-1.6-1.8-1.5 0-1.5 1.8v10.3q0 1.9 1.5 1.9z"/>
					<path id="&lt;Compound Path&gt;" class="s2" d="m315.9 636.6h-4.1l-2.1-19h2.9l1.6 15 1.5-15h2.8l1.5 15.1 1.6-15.1h2.6l-2.1 19h-4l-1.1-10.1z"/>
					<path id="&lt;Compound Path&gt;" class="s2" d="m339.6 625.6v2.7h-4.1v5.6h5.2v2.7h-8.2v-19h8.2v2.7h-5.2v5.3z"/>
					<path id="&lt;Compound Path&gt;" fill-rule="evenodd" class="s2" d="m355.4 635.7q-0.1-0.4-0.1-1.4v-3q0-1.3-0.5-1.9-0.4-0.5-1.5-0.5h-1v7.7h-3v-19h4.5q2.3 0 3.4 1 1.1 1.1 1.1 3.3v1.5q0 3-2 3.9 1.1 0.4 1.5 1.5 0.5 1 0.5 2.6v2.9q0 0.8 0 1.3 0.1 0.5 0.3 1h-3q-0.2-0.5-0.2-0.9zm-3.1-9.6h1.2q0.9 0 1.3-0.4 0.5-0.5 0.5-1.6v-1.9q0-1-0.4-1.5-0.4-0.4-1.2-0.4h-1.4z"/>
					<path id="&lt;Compound Path&gt;" class="s2" d="m374.1 625.6v2.7h-4.1v5.6h5.2v2.7h-8.2v-19h8.2v2.7h-5.2v5.3z"/>
					<path id="&lt;Compound Path&gt;" fill-rule="evenodd" class="s2" d="m388.6 617.6q2.2 0 3.3 1.2 1.2 1.2 1.2 3.5v9.6q0 2.3-1.2 3.5-1.1 1.2-3.3 1.2h-4.7v-19zm-1.8 16.3h1.7q0.7 0 1.1-0.4 0.4-0.5 0.4-1.5v-9.9q0-0.9-0.4-1.4-0.4-0.4-1.1-0.4h-1.7z"/>
					<path id="&lt;Compound Path&gt;" class="s2" d="m421.5 632q0 2.3-1.2 3.6-1.1 1.2-3.3 1.2-2.2 0-3.3-1.2-1.2-1.3-1.2-3.6v-9.9q0-2.3 1.2-3.5 1.1-1.3 3.3-1.3 2.2 0 3.3 1.3 1.2 1.2 1.2 3.5v1.9h-2.9v-2.1q0-1.8-1.5-1.8-1.6 0-1.6 1.8v10.3q0 1.9 1.6 1.9 1.5 0 1.5-1.9v-2.7h2.9z"/>
					<path id="&lt;Compound Path&gt;" fill-rule="evenodd" class="s2" d="m436.1 635.7q0-0.4 0-1.4v-3q0-1.3-0.5-1.9-0.5-0.5-1.5-0.5h-1v7.7h-3v-19h4.5q2.3 0 3.4 1 1 1.1 1 3.3v1.5q0 3-1.9 3.9 1 0.4 1.5 1.5 0.5 1 0.5 2.6v2.9q0 0.8 0 1.3 0.1 0.5 0.3 1h-3.1q-0.1-0.5-0.2-0.9zm-3-9.6h1.1q0.9 0 1.4-0.4 0.4-0.5 0.4-1.6v-1.9q0-1-0.3-1.5-0.4-0.4-1.2-0.4h-1.4z"/>
					<path id="&lt;Compound Path&gt;" fill-rule="evenodd" class="s2" d="m448.7 618.6q1.2-1.3 3.4-1.3 2.2 0 3.4 1.3 1.2 1.2 1.2 3.5v9.9q0 2.3-1.2 3.6-1.2 1.2-3.4 1.2-2.2 0-3.4-1.2-1.1-1.3-1.1-3.6v-9.9q0-2.3 1.1-3.5zm3.4 15.5q1.6 0 1.6-1.9v-10.3q0-1.8-1.6-1.8-1.5 0-1.5 1.8v10.3q0 1.9 1.5 1.9z"/>
					<path id="&lt;Compound Path&gt;" class="s2" d="m470.9 636.6h-4.1l-2.1-19h2.9l1.6 15 1.5-15h2.8l1.5 15.1 1.6-15.1h2.6l-2.1 19h-4l-1.1-10.1z"/>
					<path id="&lt;Compound Path&gt;" fill-rule="evenodd" class="s2" d="m492.2 617.6q2.3 0 3.4 1.2 1.1 1.2 1.1 3.5v9.6q0 2.3-1.1 3.5-1.1 1.2-3.4 1.2h-4.7v-19zm-1.7 16.3h1.6q0.8 0 1.2-0.4 0.4-0.5 0.4-1.5v-9.9q0-0.9-0.4-1.4-0.4-0.4-1.2-0.4h-1.6z"/>
					<path id="&lt;Compound Path&gt;" class="s2" d="m512.3 626v2.7h-3.9v7.9h-3v-19h7.9v2.7h-4.9v5.7z"/>
					<path id="&lt;Compound Path&gt;" class="s2" d="m524.4 632.3q0 1.8 1.6 1.8 1.5 0 1.5-1.8v-14.7h2.8v14.5q0 2.3-1.1 3.5-1.1 1.3-3.3 1.3-2.2 0-3.3-1.3-1.2-1.2-1.2-3.5v-14.5h3z"/>
					<path id="&lt;Compound Path&gt;" class="s2" d="m541.8 636.6h-2.6v-19h3.7l3.1 11.4v-11.4h2.6v19h-3l-3.8-13.8z"/>
					<path id="&lt;Compound Path&gt;" fill-rule="evenodd" class="s2" d="m562.3 617.6q2.3 0 3.4 1.2 1.1 1.2 1.1 3.5v9.6q0 2.3-1.1 3.5-1.1 1.2-3.4 1.2h-4.7v-19zm-1.7 16.3h1.6q0.8 0 1.2-0.4 0.4-0.5 0.4-1.5v-9.9q0-0.9-0.4-1.4-0.4-0.4-1.2-0.4h-1.6z"/>
					<path id="&lt;Compound Path&gt;" class="s2" d="m578.5 617.6v19h-3v-19z"/>
					<path id="&lt;Compound Path&gt;" class="s2" d="m590.1 636.6h-2.7v-19h3.8l3.1 11.4v-11.4h2.6v19h-3l-3.8-13.8z"/>
					<path id="&lt;Compound Path&gt;" class="s2" d="m614.6 626v6q0 2.3-1.2 3.6-1.1 1.2-3.3 1.2-2.2 0-3.3-1.2-1.2-1.3-1.2-3.6v-9.9q0-2.3 1.2-3.5 1.1-1.3 3.3-1.3 2.2 0 3.3 1.3 1.2 1.2 1.2 3.5v1.9h-2.9v-2.1q0-1.8-1.5-1.8-1.6 0-1.6 1.8v10.3q0 1.9 1.6 1.9 1.5 0 1.5-1.9v-3.5h-1.3v-2.7z"/>
					<path id="&lt;Compound Path&gt;" fill-rule="evenodd" class="s2" d="m642.1 618.8q1.1 1.2 1.1 3.5v2.4q0 2.4-1.1 3.6-1.2 1.2-3.4 1.2h-1.4v7.1h-3v-19h4.4q2.2 0 3.4 1.2zm-4.8 7.9h1.4q0.7 0 1.1-0.4 0.4-0.4 0.4-1.4v-2.8q0-1-0.4-1.4-0.4-0.4-1.1-0.4h-1.4z"/>
					<path id="&lt;Compound Path&gt;" class="s2" d="m654.5 617.6v16.3h4.9v2.7h-7.9v-19z"/>
					<path id="&lt;Compound Path&gt;" fill-rule="evenodd" class="s2" d="m674.2 636.6l-0.5-3.4h-3.7l-0.5 3.4h-2.8l3.1-19h4.4l3 19zm-0.9-6l-1.5-9.7-1.4 9.7z"/>
					<path id="&lt;Compound Path&gt;" class="s2" d="m692.7 617.6v2.7h-3.1v16.3h-3v-16.3h-3.1v-2.7z"/>
					<path id="&lt;Compound Path&gt;" class="s2" d="m707.7 626v2.7h-3.9v7.9h-3v-19h8v2.7h-5v5.7z"/>
					<path id="&lt;Compound Path&gt;" fill-rule="evenodd" class="s2" d="m717.9 618.6q1.2-1.3 3.4-1.3 2.2 0 3.4 1.3 1.1 1.2 1.1 3.5v9.9q0 2.3-1.1 3.6-1.2 1.2-3.4 1.2-2.2 0-3.4-1.2-1.1-1.3-1.1-3.6v-9.9q0-2.3 1.1-3.5zm3.4 15.5q1.6 0 1.6-1.9v-10.3q0-1.8-1.6-1.8-1.5 0-1.5 1.8v10.3q0 1.9 1.5 1.9z"/>
					<path id="&lt;Compound Path&gt;" fill-rule="evenodd" class="s2" d="m740.6 635.7q0-0.4 0-1.4v-3q0-1.3-0.5-1.9-0.5-0.5-1.5-0.5h-1v7.7h-3v-19h4.5q2.3 0 3.4 1 1 1.1 1 3.3v1.5q0 3-1.9 3.9 1 0.4 1.5 1.5 0.5 1 0.5 2.6v2.9q0 0.8 0 1.3 0.1 0.5 0.3 1h-3.1q-0.1-0.5-0.2-0.9zm-3-9.6h1.1q0.9 0 1.4-0.4 0.4-0.5 0.4-1.6v-1.9q0-1-0.3-1.5-0.4-0.4-1.2-0.4h-1.4z"/>
					<path id="&lt;Compound Path&gt;" class="s2" d="m760.7 617.6h4.2v19h-2.9v-13.6l-2 13.6h-2.9l-2.2-13.5v13.5h-2.6v-19h4.1l2.2 13.5z"/>
					<path id="&lt;Compound Path&gt;" fill-rule="evenodd" class="s2" d="m786.9 626.5q-1-0.4-1.5-1.4-0.5-0.9-0.5-2.5v-0.3q0-2.3 1.1-3.5 1.1-1.2 3.3-1.2h3.5v2.7h-3.4q-0.7 0-1.1 0.4-0.4 0.5-0.4 1.4v1.2q0 1.1 0.4 1.6 0.5 0.4 1.4 0.4h1.3v-2.1h3v2.1h0.7v2.7h-0.7v6.3q0 0.8 0 1.3 0.1 0.5 0.3 1h-3.1q-0.2-0.6-0.2-1.5-0.8 1.7-2.8 1.7-1.6 0-2.5-1.1-0.8-1.1-0.8-3.2v-2q0-3 2-4zm2.5 7.6q1.5 0 1.6-1.7v-4.4h-1.2q-1 0-1.5 0.6-0.4 0.6-0.4 1.9v1.7q0 1.9 1.5 1.9z"/>
					<path id="&lt;Compound Path&gt;" class="s2" d="m820.7 617.6h2.8l-3 19h-4.4l-3-19h3.1l2.2 15.5z"/>
					<path id="&lt;Compound Path&gt;" class="s2" d="m840.3 632q0 2.3-1.1 3.6-1.2 1.2-3.4 1.2-2.1 0-3.3-1.2-1.1-1.3-1.1-3.6v-9.9q0-2.3 1.1-3.5 1.2-1.3 3.3-1.3 2.2 0 3.4 1.3 1.1 1.2 1.1 3.5v1.9h-2.8v-2.1q0-1.8-1.6-1.8-1.5 0-1.5 1.8v10.3q0 1.9 1.5 1.9 1.6 0 1.6-1.9v-2.7h2.8z"/>
					<path id="&lt;Compound Path&gt;" class="s2" d="m866.8 626v2.7h-3.9v7.9h-3v-19h8v2.7h-5v5.7z"/>
					<path id="&lt;Compound Path&gt;" class="s2" d="m879 632.3q0 1.8 1.5 1.8 1.6 0 1.6-1.8v-14.7h2.8v14.5q0 2.3-1.1 3.5-1.2 1.3-3.4 1.3-2.1 0-3.3-1.3-1.1-1.2-1.1-3.5v-14.5h3z"/>
					<path id="&lt;Compound Path&gt;" class="s2" d="m896.4 636.6h-2.7v-19h3.8l3 11.4v-11.4h2.7v19h-3.1l-3.7-13.8z"/>
					<path id="&lt;Compound Path&gt;" fill-rule="evenodd" class="s2" d="m916.9 617.6q2.2 0 3.3 1.2 1.1 1.2 1.1 3.5v9.6q0 2.3-1.1 3.5-1.1 1.2-3.3 1.2h-4.7v-19zm-1.8 16.3h1.7q0.7 0 1.1-0.4 0.4-0.5 0.4-1.5v-9.9q0-0.9-0.4-1.4-0.4-0.4-1.1-0.4h-1.7z"/>
				</g>
			</g>
		</g>
	</g>
</svg>